<?xml version="1.0" standalone="no"?>
<!DOCTYPE svg PUBLIC "-//W3C//DTD SVG 20010904//EN"
 "http://www.w3.org/TR/2001/REC-SVG-20010904/DTD/svg10.dtd">
<svg version="1.0" xmlns="http://www.w3.org/2000/svg"
 width="512.000000pt" height="512.000000pt" viewBox="0 0 512.000000 512.000000"
 preserveAspectRatio="xMidYMid meet">

<g transform="translate(0.000000,512.000000) scale(0.100000,-0.100000)"
fill="#000000" stroke="none">
<path d="M1650 5059 c0 -23 81 -156 154 -254 l75 -100 -87 -7 c-48 -5 -111
-12 -141 -18 -80 -15 -180 -12 -240 6 -29 8 -55 13 -58 10 -16 -15 18 -41 119
-92 l113 -57 -40 -9 c-22 -5 -76 -8 -120 -6 -100 5 -176 38 -240 103 -24 26
-49 44 -55 40 -42 -26 58 -187 155 -251 27 -17 33 -34 13 -34 -26 0 -144 -63
-209 -111 -75 -55 -129 -115 -206 -228 -50 -72 -63 -101 -45 -101 4 0 24 19
43 43 20 23 60 59 90 79 58 40 129 73 129 61 0 -22 -67 -118 -135 -195 -86
-98 -162 -163 -241 -209 -72 -41 -61 -54 51 -64 47 -4 85 -9 85 -12 0 -2 -13
-23 -29 -46 -58 -85 -144 -283 -202 -465 -23 -72 -34 -89 -74 -117 -15 -10
-17 -17 -9 -25 26 -26 139 56 215 158 l25 33 -27 -133 c-15 -73 -33 -149 -40
-168 -17 -50 -62 -113 -109 -153 -71 -60 -43 -76 57 -31 32 14 69 35 82 47
l24 22 -8 -35 c-19 -88 -24 -130 -24 -202 -1 -42 2 -83 5 -92 11 -28 34 -17
50 24 l16 39 29 -57 c20 -40 29 -72 29 -107 0 -27 5 -69 10 -92 13 -57 67
-173 92 -200 25 -26 20 -29 -64 -36 -32 -3 -62 -9 -68 -12 -6 -4 -36 -46 -67
-93 -31 -48 -81 -120 -111 -159 -46 -61 -59 -73 -83 -73 -42 0 -94 -58 -159
-175 -30 -55 -57 -102 -61 -105 -3 -3 -13 -19 -22 -35 -13 -26 -13 -35 -2 -62
29 -69 100 -80 507 -85 l288 -2 6 -35 c7 -35 1 -500 -13 -954 l-6 -227 139 0
c128 0 140 2 152 20 7 11 19 20 27 20 18 0 19 -12 4 -27 -9 -9 153 -12 632
-12 432 0 639 3 629 10 -8 5 -71 41 -140 80 -141 80 -301 177 -375 228 -371
256 -664 562 -868 904 -78 129 -99 169 -122 225 l-23 56 50 23 c58 27 62 27
52 11 -5 -10 -4 -10 5 -2 7 6 15 30 18 53 4 25 11 41 19 41 17 0 18 -17 2 -23
-8 -4 -7 -6 4 -6 9 -1 18 4 20 9 2 7 15 7 38 -1 46 -16 45 -13 25 -47 -17 -28
-17 -29 24 -101 22 -40 56 -92 76 -115 19 -24 34 -45 32 -47 -1 -2 -1 -4 0 -3
3 1 93 -83 191 -176 30 -29 50 -56 46 -62 -5 -7 -2 -9 9 -5 22 8 40 -16 24
-32 -9 -9 -5 -17 18 -35 29 -23 45 -25 45 -5 0 6 -4 8 -8 5 -14 -8 -55 25 -44
36 6 6 20 0 38 -17 16 -15 43 -38 60 -52 23 -17 31 -30 28 -46 -2 -12 -2 -16
2 -9 9 18 22 15 52 -13 15 -14 21 -25 14 -25 -8 0 -20 7 -29 15 -8 9 -18 13
-21 10 -10 -10 33 -35 55 -32 15 3 24 -2 28 -14 4 -10 9 -18 13 -18 15 2 28
-2 47 -17 17 -13 18 -16 5 -25 -13 -9 -12 -10 2 -5 18 5 67 -23 157 -91 24
-18 50 -33 57 -33 28 0 13 28 -28 55 -48 31 -279 210 -318 246 -14 12 -47 43
-75 68 -27 25 -49 49 -47 53 1 5 -3 7 -10 5 -7 -1 -13 5 -13 13 0 8 -6 14 -13
13 -6 -2 -9 4 -6 12 4 10 2 13 -8 10 -7 -3 -33 11 -57 31 -32 28 -39 39 -29
46 8 6 4 7 -12 2 -14 -3 -22 -3 -18 1 4 4 -12 23 -36 41 -23 19 -49 45 -56 59
-7 14 -17 25 -21 25 -11 0 -91 106 -129 169 -20 36 -26 52 -16 48 13 -5 14 -3
4 13 -17 27 -6 33 51 25 38 -5 51 -11 52 -23 0 -11 2 -12 6 -4 3 8 13 3 32
-15 186 -189 583 -483 1001 -742 74 -46 160 -100 190 -119 30 -20 63 -35 73
-34 9 0 17 -6 17 -14 0 -8 3 -13 8 -13 19 3 33 -2 27 -11 -3 -5 2 -10 12 -10
10 0 29 -9 43 -20 14 -11 31 -20 38 -20 6 0 12 -4 12 -10 0 -5 9 -10 20 -10
11 0 20 -4 20 -8 0 -4 20 -13 46 -20 25 -7 43 -16 40 -20 -3 -5 16 -14 42 -21
25 -6 60 -18 77 -25 59 -25 131 -46 220 -62 50 -9 112 -22 139 -30 26 -8 51
-12 55 -10 4 3 35 6 69 8 l62 3 2 60 c0 33 1 66 1 72 -1 23 37 -7 38 -30 1
-17 2 -18 6 -4 5 19 19 22 29 6 3 -6 0 -15 -7 -20 -12 -8 -11 -11 4 -20 9 -6
14 -16 11 -22 -4 -7 -1 -6 7 2 11 10 11 15 2 18 -24 9 -13 24 15 21 l27 -3 -2
-102 c-2 -62 3 -130 12 -173 8 -39 15 -91 15 -116 0 -38 3 -44 21 -44 20 0 21
4 15 53 -4 28 -14 85 -22 125 -13 59 -14 87 -6 144 17 110 5 134 -87 179 l-75
35 3 280 c1 153 4 304 7 335 l6 55 109 12 c61 7 187 32 283 56 200 50 250 76
266 136 12 45 7 62 -35 115 -17 22 -41 56 -53 76 -29 48 -104 117 -137 125
-14 3 -34 4 -44 1 -20 -5 -93 65 -226 216 l-68 79 -66 -4 c-61 -3 -66 -1 -69
19 -2 13 18 55 48 103 35 56 55 100 62 139 5 31 17 80 25 109 14 50 12 116 -4
160 -4 10 4 7 25 -8 51 -38 56 -17 22 86 -19 53 -33 121 -37 169 -7 88 -6 88
52 30 52 -52 205 -165 224 -165 20 0 21 20 2 47 -11 16 -25 51 -31 78 -7 28
-18 71 -25 98 l-13 47 29 -21 c17 -11 37 -32 46 -45 20 -31 52 -49 64 -37 24
24 -48 209 -134 347 -28 45 -66 117 -84 161 -19 44 -39 86 -46 94 -10 11 -8
13 8 8 90 -28 232 -25 291 6 31 16 60 44 53 51 -8 7 -98 46 -106 46 -17 0 -86
64 -125 117 -42 57 -90 156 -102 208 l-6 30 21 -25 c12 -14 27 -33 35 -44 21
-30 44 -13 44 33 0 92 -80 223 -223 365 -89 88 -98 100 -81 109 11 5 44 35 74
66 85 86 132 192 67 152 -37 -24 -119 -41 -194 -41 -65 0 -123 14 -123 29 0 8
64 60 123 100 79 54 59 70 -56 46 -77 -16 -170 -53 -219 -87 -15 -10 -29 -14
-32 -9 -4 5 -2 12 3 15 5 3 12 18 16 33 3 16 33 81 66 147 78 157 72 169 -44
80 -88 -68 -255 -152 -320 -160 -44 -6 -49 -4 -72 22 -30 34 -109 196 -125
253 -6 22 -14 43 -19 45 -27 17 -61 -105 -62 -221 l-1 -83 -56 44 c-50 37
-127 89 -349 232 -29 19 -57 34 -63 34 -17 0 -11 -34 25 -146 38 -117 43 -143
22 -126 -26 22 -126 52 -242 73 -205 37 -363 102 -485 198 -50 40 -90 53 -90
30z m1485 -1599 c34 -67 105 -456 105 -572 0 -52 15 -72 29 -36 5 15 5 25 -2
30 -11 7 -6 22 34 87 11 19 34 73 50 120 16 47 29 77 30 66 1 -24 9 -367 9
-378 0 -12 34 23 67 70 17 23 33 40 36 37 3 -3 3 3 0 15 -3 12 -1 21 5 21 6 0
16 23 23 52 12 44 15 48 20 27 4 -13 7 -133 8 -265 l1 -241 -31 -7 c-17 -3
-179 -6 -359 -6 -275 0 -330 -2 -340 -15 -37 -45 39 -57 365 -59 299 -1 331 3
398 48 l36 25 12 -57 c6 -31 32 -118 57 -192 38 -111 46 -148 46 -209 l1 -74
-47 -13 c-54 -16 -58 -25 -63 -120 -2 -61 -5 -67 -33 -84 -16 -10 -33 -16 -36
-13 -3 4 -6 1 -6 -5 0 -7 -6 -12 -14 -12 -8 0 -27 -6 -43 -14 -62 -32 -102
-45 -203 -65 -278 -55 -266 -54 -810 -58 -470 -4 -578 -1 -730 21 -19 3 -55 8
-80 11 -96 13 -265 48 -270 55 -3 5 -12 8 -20 8 -49 -4 -76 14 -105 70 -16 31
-36 65 -43 74 -8 9 -11 22 -7 27 3 6 -1 23 -9 38 -8 16 -17 40 -20 54 -7 34
-43 49 -120 49 l-63 0 13 58 c19 90 44 184 61 222 8 19 27 85 42 147 l26 111
33 -29 c18 -16 38 -42 44 -57 l12 -27 4 33 c3 26 6 30 20 23 40 -21 178 -31
424 -31 203 1 267 4 281 14 19 14 23 41 7 51 -5 3 -167 7 -360 9 -261 3 -354
7 -365 16 -24 20 -9 340 16 340 5 0 9 -15 9 -34 0 -18 7 -53 15 -76 8 -23 15
-60 15 -81 0 -54 16 -49 25 8 10 68 35 122 54 116 14 -4 14 -3 1 6 -12 8 -13
15 -1 48 16 45 72 150 98 182 18 21 18 19 19 -106 0 -108 4 -137 23 -185 12
-32 25 -58 29 -58 4 0 17 20 29 43 12 23 27 41 33 39 6 -1 9 2 5 7 -7 12 19
57 61 104 5 7 13 20 17 30 4 11 12 15 18 11 8 -5 9 -3 4 6 -4 7 -3 15 2 19 5
3 20 22 33 41 25 37 105 135 130 160 8 8 32 37 54 63 21 26 40 46 42 44 2 -2
-5 -21 -16 -43 -63 -126 -98 -244 -71 -244 6 0 11 7 11 15 0 22 56 47 93 41
21 -4 26 -3 13 2 -17 7 -15 10 15 22 62 25 203 120 267 178 56 52 62 56 62 35
0 -32 -69 -236 -82 -244 -6 -4 -8 -11 -4 -17 3 -6 -11 -24 -31 -41 -31 -26
-35 -33 -23 -41 19 -12 40 -13 40 -2 0 7 85 68 161 114 44 28 181 140 248 206
36 34 66 62 68 62 1 0 -5 -21 -13 -47 -8 -27 -17 -58 -20 -70 -3 -13 -10 -23
-15 -23 -5 0 -9 -8 -9 -18 0 -10 -9 -35 -20 -57 -11 -22 -20 -43 -20 -48 0 -8
67 28 80 43 3 3 23 17 45 32 51 35 122 107 174 178 22 30 45 61 51 68 6 6 8
12 4 12 -4 0 0 8 8 18 23 27 88 151 89 170 0 9 7 1 16 -18 8 -19 21 -46 28
-60z m-2021 -876 c9 -8 16 -27 16 -42 0 -30 -35 -170 -45 -180 -3 -3 -15 -1
-25 6 -24 15 -70 16 -70 2 0 -5 6 -10 14 -10 21 0 66 -40 66 -58 0 -15 -2 -15
-11 -2 -8 12 -9 10 -4 -7 5 -19 -46 -208 -61 -222 -9 -9 -75 148 -85 204 -19
104 8 233 57 277 53 46 120 61 148 32z m2680 -70 c41 -30 66 -91 66 -161 0
-72 -12 -110 -61 -187 l-37 -58 -22 68 c-12 38 -25 78 -30 89 -18 43 -18 65
-1 75 12 6 22 5 30 -3 10 -9 11 -8 6 4 -4 12 1 18 19 23 14 3 26 11 26 16 0
15 -54 12 -76 -5 -32 -25 -40 -17 -52 50 -7 35 -15 71 -18 80 -14 37 101 44
150 9z m-2813 -547 c-22 -22 -10 -27 70 -27 128 0 164 -32 52 -46 -96 -13 -96
-34 0 -33 78 1 97 -4 97 -25 0 -8 -23 -16 -62 -22 -37 -5 -63 -14 -66 -23 -4
-12 7 -13 58 -8 63 7 90 -1 90 -27 0 -6 -23 -20 -51 -31 -28 -11 -55 -25 -60
-32 -19 -22 8 -23 55 -2 69 30 90 24 97 -31 7 -48 -1 -74 -26 -84 -9 -3 -13
-2 -10 3 18 30 -31 16 -133 -35 -105 -54 -122 -59 -186 -61 -38 -1 -75 -4 -82
-7 -14 -6 -58 80 -48 95 4 7 3 10 -2 7 -5 -4 -28 27 -51 68 l-41 74 80 122
c44 68 85 128 90 133 11 13 132 23 137 12 2 -5 -2 -14 -8 -20z m2950 -14 c19
-21 58 -66 87 -100 l53 -62 -42 -138 c-23 -76 -46 -144 -51 -150 -20 -25 -168
-5 -213 27 -22 16 -88 22 -96 8 -16 -25 -40 15 -42 68 -2 48 -2 49 28 49 17
-1 45 -4 63 -8 28 -6 33 -4 30 11 -2 12 -18 20 -56 26 -40 7 -52 14 -52 27 0
25 30 39 80 39 64 0 46 25 -19 26 -28 1 -55 4 -58 8 -15 15 30 41 79 46 31 3
53 10 56 19 4 11 -8 13 -57 9 -53 -4 -61 -2 -61 14 0 23 27 36 91 46 54 7 75
26 39 35 -31 8 -24 25 13 30 83 10 92 8 128 -30z m-1022 -738 c-32 -44 -59
-63 -40 -27 11 21 58 72 66 72 3 0 -8 -20 -26 -45z m147 -39 c-6 -24 -42 -53
-53 -42 -3 2 7 21 22 41 30 39 41 39 31 1z m-1196 -851 c0 -3 -15 -24 -32 -48
-18 -24 -38 -53 -44 -63 -18 -30 -27 -9 -14 30 13 40 90 109 90 81z m140 -77
c0 -24 -56 -98 -73 -98 -22 0 -22 -1 22 67 30 48 51 60 51 31z m34 -43 c6 -16
-26 -55 -44 -55 -8 0 29 69 36 70 1 0 4 -7 8 -15z"/>
<path d="M3034 3102 c-32 -26 -70 -55 -84 -65 -35 -25 -1 -23 53 3 51 24 79
46 102 83 27 43 -2 35 -71 -21z"/>
<path d="M3124 3052 c-14 -10 -54 -81 -54 -96 0 -6 -17 -18 -37 -25 -112 -40
-143 -53 -143 -62 0 -15 33 -10 126 20 139 44 154 47 154 22 0 -31 17 -26 40
11 33 55 1 69 -98 42 -21 -6 -21 -4 7 24 30 30 39 56 23 66 -4 2 -12 2 -18 -2z"/>
<path d="M3007 2994 c-8 -9 11 -44 23 -44 6 0 10 11 10 25 0 23 -18 34 -33 19z"/>
<path d="M2920 2978 c0 -8 5 -19 12 -26 20 -20 40 -14 36 11 -3 25 -48 39 -48
15z"/>
<path d="M2825 2855 c-22 -42 -26 -58 -17 -67 15 -15 34 1 57 51 17 38 15 71
-3 71 -5 0 -22 -25 -37 -55z"/>
<path d="M3130 2870 c0 -11 5 -20 10 -20 6 0 10 9 10 20 0 11 -4 20 -10 20 -5
0 -10 -9 -10 -20z"/>
<path d="M3030 2860 c0 -5 7 -10 16 -10 8 0 12 5 9 10 -3 6 -10 10 -16 10 -5
0 -9 -4 -9 -10z"/>
<path d="M2910 2826 c-12 -34 -12 -36 0 -36 16 0 33 41 21 53 -7 7 -13 2 -21
-17z"/>
<path d="M3070 2839 c-14 -6 -42 -9 -62 -7 -31 3 -38 0 -38 -14 0 -43 83 -47
127 -6 38 36 26 48 -27 27z"/>
<path d="M3148 2775 c-2 -2 -28 -6 -58 -8 -30 -3 -62 -7 -70 -10 -8 -3 -27 -8
-42 -11 -33 -7 -38 -26 -7 -26 29 0 16 -36 -27 -77 -19 -17 -34 -36 -34 -42 0
-15 60 7 88 32 21 20 23 20 40 3 16 -17 15 -19 -23 -52 -34 -30 -36 -34 -15
-29 14 4 41 16 62 27 31 18 41 19 69 9 41 -14 101 -14 134 1 43 19 28 28 -49
28 -43 0 -78 5 -81 11 -4 6 3 21 15 34 30 32 20 59 -17 51 -85 -17 -106 -18
-99 -8 3 6 32 14 64 18 55 6 82 18 82 34 0 9 -26 21 -32 15z m-52 -114 c-14
-16 -22 -17 -46 -8 -38 15 -28 27 22 27 40 0 41 -1 24 -19z"/>
<path d="M3120 1830 c-80 -5 -235 -14 -345 -20 -110 -6 -459 -13 -775 -16
-316 -3 -585 -7 -597 -10 -28 -5 -31 -39 -5 -53 9 -5 107 -17 217 -26 171 -15
281 -17 755 -12 305 3 607 11 670 16 63 6 142 13 175 16 134 12 247 38 266 62
38 44 -84 59 -361 43z"/>
<path d="M1376 1575 c4 -8 8 -15 10 -15 2 0 4 7 4 15 0 8 -4 15 -10 15 -5 0
-7 -7 -4 -15z"/>
<path d="M1476 1573 c-3 -4 -6 -13 -5 -22 0 -12 3 -11 9 4 8 18 9 18 9 2 1
-17 21 -15 21 3 0 10 -26 20 -34 13z"/>
<path d="M1310 1560 c0 -5 5 -10 11 -10 5 0 7 5 4 10 -3 6 -8 10 -11 10 -2 0
-4 -4 -4 -10z"/>
<path d="M1535 1530 c3 -5 8 -10 11 -10 2 0 4 5 4 10 0 6 -5 10 -11 10 -5 0
-7 -4 -4 -10z"/>
<path d="M1466 1505 c4 -8 10 -15 15 -15 4 0 6 7 3 15 -4 8 -10 15 -15 15 -4
0 -6 -7 -3 -15z"/>
<path d="M1485 1460 c3 -5 8 -10 11 -10 2 0 4 5 4 10 0 6 -5 10 -11 10 -5 0
-7 -4 -4 -10z"/>
<path d="M1514 1449 c-3 -6 -1 -16 5 -22 6 -6 11 -9 12 -6 0 2 2 12 4 22 4 19
-10 23 -21 6z"/>
<path d="M1561 1418 c-1 -10 8 -27 20 -39 12 -12 18 -27 15 -36 -5 -13 -4 -14
9 -3 14 12 14 15 -2 34 -10 12 -21 23 -24 26 -3 3 -9 12 -12 20 -4 12 -6 11
-6 -2z"/>
<path d="M1549 1372 c6 -12 16 -24 22 -28 8 -4 8 -1 0 14 -6 12 -16 24 -22 28
-8 4 -8 1 0 -14z"/>
<path d="M1650 1306 c0 -2 8 -10 18 -17 15 -13 16 -12 3 4 -13 16 -21 21 -21
13z"/>
<path d="M1636 1282 c-3 -5 1 -9 9 -9 8 0 12 4 9 9 -3 4 -7 8 -9 8 -2 0 -6 -4
-9 -8z"/>
<path d="M1665 1260 c-3 -5 -1 -10 4 -10 6 0 11 5 11 10 0 6 -2 10 -4 10 -3 0
-8 -4 -11 -10z"/>
<path d="M1687 1246 c-4 -10 -1 -13 8 -9 8 3 12 9 9 14 -7 12 -11 11 -17 -5z"/>
<path d="M1610 1201 c0 -5 7 -15 17 -22 15 -13 15 -12 4 9 -12 23 -21 28 -21
13z"/>
<path d="M1756 1181 c-4 -5 4 -15 16 -22 22 -12 22 -11 8 7 -8 10 -15 20 -16
22 -1 2 -5 -1 -8 -7z"/>
<path d="M1680 1141 c0 -6 5 -11 10 -11 6 0 10 -8 10 -19 0 -22 46 -56 55 -41
3 6 -1 10 -10 10 -8 0 -19 10 -24 23 -10 27 -41 55 -41 38z"/>
<path d="M1890 940 c8 -5 20 -10 25 -10 6 0 3 5 -5 10 -8 5 -19 10 -25 10 -5
0 -3 -5 5 -10z"/>
<path d="M2153 740 c14 -11 28 -20 32 -20 4 0 -4 9 -18 20 -14 11 -28 20 -32
20 -4 0 4 -9 18 -20z"/>
<path d="M3805 420 c3 -5 8 -10 11 -10 2 0 4 5 4 10 0 6 -5 10 -11 10 -5 0 -7
-4 -4 -10z"/>
<path d="M3830 406 c0 -8 5 -18 10 -21 6 -3 10 -11 10 -18 0 -8 -3 -8 -12 1
-7 7 -19 12 -27 11 -11 0 -10 -3 4 -9 17 -7 17 -9 3 -9 -26 -1 -22 -16 5 -19
13 -1 28 7 35 18 7 12 8 20 2 20 -5 0 -10 6 -10 14 0 8 -4 18 -10 21 -5 3 -10
-1 -10 -9z"/>
<path d="M3738 333 c12 -2 30 -2 40 0 9 3 -1 5 -23 4 -22 0 -30 -2 -17 -4z"/>
<path d="M2920 260 c0 -5 5 -10 11 -10 5 0 7 5 4 10 -3 6 -8 10 -11 10 -2 0
-4 -4 -4 -10z"/>
<path d="M3013 243 c9 -9 20 -13 24 -9 4 4 1 11 -7 16 -25 16 -35 11 -17 -7z"/>
<path d="M2963 223 c9 -9 19 -14 23 -11 10 10 -6 28 -24 28 -15 0 -15 -1 1
-17z"/>
<path d="M3085 225 c21 -9 43 -21 47 -28 5 -8 8 -8 8 -1 0 18 -21 31 -60 38
l-35 6 40 -15z"/>
<path d="M3010 210 c0 -5 5 -10 10 -10 6 0 10 5 10 10 0 6 -4 10 -10 10 -5 0
-10 -4 -10 -10z"/>
<path d="M3057 203 c-12 -11 -7 -43 6 -40 6 1 11 -3 10 -9 -1 -5 8 -16 20 -24
21 -12 21 -12 7 6 -15 18 -14 18 10 1 37 -25 107 -57 125 -57 9 0 14 -4 11 -8
-3 -5 0 -9 7 -10 7 0 55 -13 107 -27 105 -30 319 -48 306 -26 -4 6 -22 11 -39
11 l-32 1 28 15 c40 22 33 26 -12 8 -36 -14 -47 -14 -123 1 -46 10 -91 22
-101 27 -10 5 -29 12 -42 14 -52 9 -170 61 -167 74 2 7 -3 10 -12 7 -8 -3 -29
5 -47 19 -34 24 -50 29 -62 17z"/>
<path d="M3200 180 c0 -5 5 -10 11 -10 5 0 7 5 4 10 -3 6 -8 10 -11 10 -2 0
-4 -4 -4 -10z"/>
<path d="M3258 163 c-23 -6 -8 -22 41 -46 48 -24 51 -21 10 9 -19 14 -33 30
-31 35 1 5 1 8 0 8 -2 -1 -11 -3 -20 -6z"/>
<path d="M3324 145 c11 -8 22 -12 25 -9 6 6 -19 24 -34 24 -5 -1 -1 -7 9 -15z"/>
<path d="M3208 143 c7 -3 16 -2 19 1 4 3 -2 6 -13 5 -11 0 -14 -3 -6 -6z"/>
<path d="M3460 101 c0 -6 5 -13 10 -16 6 -3 10 1 10 9 0 9 -4 16 -10 16 -5 0
-10 -4 -10 -9z"/>
<path d="M3498 103 c6 -2 18 -2 25 0 6 3 1 5 -13 5 -14 0 -19 -2 -12 -5z"/>
<path d="M3565 90 c4 -6 -8 -10 -27 -11 -33 -1 -33 -1 7 -10 43 -9 91 -3 100
12 4 5 -5 5 -20 -1 -33 -13 -66 -14 -47 -1 11 7 10 9 -3 14 -9 4 -13 3 -10 -3z"/>
<path d="M3411 81 c23 -15 136 -40 144 -33 3 3 -22 12 -55 19 -33 6 -71 15
-83 18 -18 5 -19 4 -6 -4z"/>
</g>
</svg>
